<svg xmlns="http://www.w3.org/2000/svg" viewBox="0 0 400 180" width="400" height="180"> <g>   </g> <g transform="matrix(2.1229847138857525 0 0 2.1229847138857525 -179.9689767275966 47.92642000376357)"> <g transform="matrix(1.15807102325 0 0 1.15807102325 -28.291341224333877 -3.1326715629633703)"> <g> <g is="lm-picture">  <g transform="matrix(0.41749518340500336 0 0 0.41749496584243745 32.82348109629478 -6.547982763840505)"> <g transform="matrix(0.6037970440675904 0 0 0.6037963139490432 207.66170862305904 -7.275332319905156)">  <path fill="#000000" fill-opacity="1" d="M50 0C26.479 0 7.402 19.077 7.402 42.598c0 11.764 4.771 22.416 12.48 30.125S50 100 50 100s22.417-19.568 30.126-27.277c7.708-7.709 12.472-18.36 12.472-30.125C92.598 19.078 73.528 0 50 0zm.116 76.922c-18.818 0-34.08-15.26-34.08-34.079S31.299 8.766 50.117 8.766s34.078 15.26 34.078 34.077-15.26 34.08-34.078 34.08zM64.433 31.11c.056 8.122-6.366 14.456-14.31 14.456h-.012c-7.944 0-14.367-6.334-14.311-14.456a14.272 14.272 0 0 1 14.311-14.433h.011c7.945 0 14.367 6.4 14.311 14.433zm12.611 26.456c-5.2 9.522-15.31 15.966-26.933 15.966-11.611 0-21.722-6.433-26.933-15.955.01-.011.01-.011.01-.023 3.29-4.41 7.412-7.544 11.756-7.544H65.29c4.355 0 8.467 3.133 11.744 7.544l.011.012zM35.8 31.11a14.272 14.272 0 0 1 14.311-14.433h.011c7.945 0 14.367 6.4 14.311 14.433.056 8.122-6.366 14.456-14.31 14.456h-.012c-7.944 0-14.367-6.334-14.311-14.456zm41.233 26.444c-5.2 9.512-15.31 15.956-26.922 15.956-11.6 0-21.711-6.444-26.922-15.956 3.289-4.41 7.411-7.544 11.755-7.544H65.29c4.355 0 8.467 3.133 11.744 7.544z"/> </g><g transform="matrix(0.6407988159850388 0 0 0.640798193484857 307.67201075067885 72.68986699260086)">  <path fill="#000000" fill-opacity="1" d="M50 0C26.479 0 7.402 19.077 7.402 42.598c0 11.764 4.771 22.416 12.48 30.125S50 100 50 100s22.417-19.568 30.126-27.277c7.708-7.709 12.472-18.36 12.472-30.125C92.598 19.078 73.528 0 50 0zm.116 76.922c-18.818 0-34.08-15.26-34.08-34.079S31.299 8.766 50.117 8.766s34.078 15.26 34.078 34.077-15.26 34.08-34.078 34.08zM64.433 31.11c.056 8.122-6.366 14.456-14.31 14.456h-.012c-7.944 0-14.367-6.334-14.311-14.456a14.272 14.272 0 0 1 14.311-14.433h.011c7.945 0 14.367 6.4 14.311 14.433zm12.611 26.456c-5.2 9.522-15.31 15.966-26.933 15.966-11.611 0-21.722-6.433-26.933-15.955.01-.011.01-.011.01-.023 3.29-4.41 7.412-7.544 11.756-7.544H65.29c4.355 0 8.467 3.133 11.744 7.544l.011.012zM35.8 31.11a14.272 14.272 0 0 1 14.311-14.433h.011c7.945 0 14.367 6.4 14.311 14.433.056 8.122-6.366 14.456-14.31 14.456h-.012c-7.944 0-14.367-6.334-14.311-14.456zm41.233 26.444c-5.2 9.512-15.31 15.956-26.922 15.956-11.6 0-21.711-6.444-26.922-15.956 3.289-4.41 7.411-7.544 11.755-7.544H65.29c4.355 0 8.467 3.133 11.744 7.544z"/> </g><g transform="matrix(0.9074457716077367 -0.15530484027616095 0.15530435705050868 0.9074460868064907 173.94763664533403 55.95453089046276)">  <path fill="#000000" fill-opacity="1" d="M68.946 71.393c-4.642 0-8.47-3.827-8.47-8.47s3.828-8.532 8.47-8.532 8.47 3.827 8.47 8.47-3.765 8.532-8.47 8.532zm0-15.684c-3.952 0-7.152 3.2-7.152 7.152s3.2 7.152 7.152 7.152 7.152-3.2 7.152-7.152-3.2-7.152-7.152-7.152zM31.054 100c-4.642 0-8.47-3.827-8.47-8.47s3.828-8.469 8.47-8.469 8.47 3.827 8.47 8.47S35.758 100 31.053 100zm0-15.684c-3.952 0-7.152 3.2-7.152 7.152s3.2 7.152 7.152 7.152 7.152-3.2 7.152-7.152-3.2-7.152-7.152-7.152zm0-40.401c-4.642 0-8.47-3.827-8.47-8.47s3.828-8.469 8.47-8.469 8.47 3.827 8.47 8.47-3.765 8.469-8.47 8.469zm0-15.621c-3.952 0-7.152 3.2-7.152 7.151s3.2 7.152 7.152 7.152 7.152-3.2 7.152-7.152-3.2-7.151-7.152-7.151zm37.892-11.355c-4.642 0-8.47-3.827-8.47-8.47S64.305 0 68.947 0s8.47 3.827 8.47 8.47-3.765 8.469-8.47 8.469zm0-15.684c-3.952 0-7.152 3.2-7.152 7.152s3.2 7.214 7.152 7.214 7.152-3.2 7.152-7.152-3.2-7.214-7.152-7.214zm-31.493 30.3a.57.57 0 0 1-.502-.25.76.76 0 0 1 .126-.941l25.03-18.068a.76.76 0 0 1 .942.126.76.76 0 0 1-.126.94L37.83 31.43c-.125.063-.25.126-.376.126zm0 55.459a.57.57 0 0 1-.502-.251.76.76 0 0 1 .126-.941l25.03-18.068a.76.76 0 0 1 .942.126.76.76 0 0 1-.126.94l-25.03 18.068c-.19.126-.315.126-.44.126zm25.031-27.855c-.125 0-.25-.062-.376-.125L37.014 40.527c-.314-.188-.377-.627-.126-.941.189-.314.628-.376.941-.126l25.032 18.507c.313.189.376.628.125.941-.125.126-.313.251-.502.251z&#xA;"/> </g><g transform="matrix(0.7135341781864244 0.7425894658604231 -0.7425931315275301 0.713531224773817 279.70897977548026 62.48734457025435)">  <path fill="#000000" fill-opacity="1" d="M87.742 13.738a7.595 7.595 0 0 0 4.6 1.554 7.658 7.658 0 0 0 7.649-7.65C99.99 3.429 96.559 0 92.342 0A7.651 7.651 0 0 0 84.7 7.643c0 1.865.672 3.574 1.784 4.903L12.545 86.484a7.61 7.61 0 0 0-4.893-1.775A7.651 7.651 0 0 0 .01 92.35c0 4.22 3.43 7.65 7.642 7.65a7.658 7.658 0 0 0 7.649-7.649 7.59 7.59 0 0 0-1.562-4.609l74.003-74.004zm-1.309-6.096a5.916 5.916 0 0 1 5.91-5.909 5.92 5.92 0 0 1 5.914 5.909 5.921 5.921 0 0 1-5.915 5.914 5.917 5.917 0 0 1-5.909-5.914zM7.651 98.266a5.92 5.92 0 0 1-5.909-5.915 5.916 5.916 0 0 1 5.909-5.908 5.92 5.92 0 0 1 5.914 5.908 5.921 5.921 0 0 1-5.914 5.915z&#xA;"/> </g> </g> </g><g is="lm-text" transform="matrix(1.9999997813231605 0 0 1.9999989476698585 79.16882124161226 -1.0408409696230674)">   <path fill="#000000" fill-opacity="1" d="M12.222222222222216,7.75C12.222222222222216,7.75,12.222222222222216,-6.527777777777777,12.222222222222216,-6.527777777777777C12.222222222222216,-6.527777777777777,13.888888888888882,-6.527777777777777,13.888888888888882,-6.527777777777777C13.888888888888882,-6.527777777777777,13.888888888888882,6.25,13.888888888888882,6.25C13.888888888888882,6.25,20.222222222222214,6.25,20.222222222222214,6.25C20.222222222222214,6.25,20.222222222222214,7.75,20.222222222222214,7.75C20.222222222222214,7.75,12.222222222222216,7.75,12.222222222222216,7.75C12.222222222222216,7.75,12.222222222222216,7.75,12.222222222222216,7.75M39.55555555555554,4.805555555555555C39.55555555555554,5.805555555555555,39.16666666666665,6.583333333333334,38.44444444444443,7.138888888888889C37.72222222222221,7.694444444444445,36.66666666666665,7.972222222222222,35.333333333333314,7.972222222222222C33.88888888888887,7.972222222222222,32.777777777777764,7.694444444444445,31.999999999999986,7.25C31.999999999999986,7.25,31.999999999999986,5.75,31.999999999999986,5.75C32.499999999999986,6.027777777777778,33.05555555555554,6.194444444444445,33.66666666666665,6.361111111111111C34.277777777777764,6.527777777777778,34.833333333333314,6.583333333333334,35.38888888888887,6.583333333333334C36.22222222222221,6.583333333333334,36.88888888888887,6.472222222222222,37.333333333333314,6.194444444444445C37.777777777777764,5.916666666666667,37.999999999999986,5.527777777777778,37.999999999999986,4.972222222222222C37.999999999999986,4.527777777777779,37.833333333333314,4.194444444444445,37.44444444444443,3.916666666666667C37.05555555555554,3.6388888888888893,36.38888888888887,3.25,35.333333333333314,2.8611111111111116C34.333333333333314,2.4722222222222223,33.66666666666665,2.1388888888888893,33.22222222222221,1.8611111111111116C32.777777777777764,1.583333333333334,32.499999999999986,1.25,32.277777777777764,0.916666666666667C32.05555555555554,0.5833333333333339,31.999999999999986,0.19444444444444464,31.999999999999986,-0.30555555555555536C31.999999999999986,-1.1944444444444446,32.333333333333314,-1.916666666666666,33.05555555555554,-2.416666666666666C33.777777777777764,-2.916666666666666,34.72222222222221,-3.1388888888888875,35.94444444444443,-3.1388888888888875C37.11111111111109,-3.1388888888888875,38.22222222222221,-2.916666666666666,39.333333333333314,-2.4722222222222214C39.333333333333314,-2.4722222222222214,38.777777777777764,-1.1388888888888893,38.777777777777764,-1.1388888888888893C37.72222222222221,-1.5833333333333321,36.72222222222221,-1.8055555555555554,35.833333333333314,-1.8055555555555554C35.05555555555554,-1.8055555555555554,34.499999999999986,-1.6388888888888875,34.11111111111109,-1.416666666666666C33.72222222222221,-1.1944444444444446,33.499999999999986,-0.8611111111111107,33.499999999999986,-0.4166666666666661C33.499999999999986,-0.1388888888888884,33.55555555555554,0.08333333333333393,33.72222222222221,0.30555555555555625C33.88888888888887,0.5277777777777786,34.11111111111109,0.6944444444444446,34.44444444444443,0.8611111111111116C34.777777777777764,1.0277777777777786,35.38888888888887,1.3055555555555562,36.333333333333314,1.6388888888888893C37.61111111111109,2.083333333333334,38.44444444444443,2.6388888888888893,38.88888888888887,3.083333333333334C39.333333333333314,3.5277777777777777,39.55555555555554,4.083333333333334,39.55555555555554,4.805555555555555C39.55555555555554,4.805555555555555,39.55555555555554,4.805555555555555,39.55555555555554,4.805555555555555M45.61111111111109,6.583333333333334C45.88888888888887,6.583333333333334,46.16666666666665,6.583333333333334,46.44444444444443,6.527777777777778C46.72222222222221,6.472222222222222,46.94444444444443,6.472222222222222,47.11111111111109,6.416666666666667C47.11111111111109,6.416666666666667,47.11111111111109,7.638888888888889,47.11111111111109,7.638888888888889C46.94444444444443,7.75,46.66666666666665,7.805555555555555,46.333333333333314,7.861111111111111C45.999999999999986,7.916666666666667,45.66666666666665,7.972222222222222,45.38888888888887,7.972222222222222C43.333333333333314,7.972222222222222,42.277777777777764,6.861111111111111,42.277777777777764,4.694444444444445C42.277777777777764,4.694444444444445,42.277777777777764,-1.6944444444444446,42.277777777777764,-1.6944444444444446C42.277777777777764,-1.6944444444444446,40.72222222222221,-1.6944444444444446,40.72222222222221,-1.6944444444444446C40.72222222222221,-1.6944444444444446,40.72222222222221,-2.4722222222222214,40.72222222222221,-2.4722222222222214C40.72222222222221,-2.4722222222222214,42.277777777777764,-3.1388888888888875,42.277777777777764,-3.1388888888888875C42.277777777777764,-3.1388888888888875,42.94444444444443,-5.416666666666666,42.94444444444443,-5.416666666666666C42.94444444444443,-5.416666666666666,43.88888888888887,-5.416666666666666,43.88888888888887,-5.416666666666666C43.88888888888887,-5.416666666666666,43.88888888888887,-2.9722222222222214,43.88888888888887,-2.9722222222222214C43.88888888888887,-2.9722222222222214,46.999999999999986,-2.9722222222222214,46.999999999999986,-2.9722222222222214C46.999999999999986,-2.9722222222222214,46.999999999999986,-1.6944444444444446,46.999999999999986,-1.6944444444444446C46.999999999999986,-1.6944444444444446,43.88888888888887,-1.6944444444444446,43.88888888888887,-1.6944444444444446C43.88888888888887,-1.6944444444444446,43.88888888888887,4.583333333333334,43.88888888888887,4.583333333333334C43.88888888888887,5.25,43.999999999999986,5.75,44.333333333333314,6.083333333333334C44.66666666666665,6.416666666666667,45.05555555555554,6.583333333333334,45.61111111111109,6.583333333333334C45.61111111111109,6.583333333333334,45.61111111111109,6.583333333333334,45.61111111111109,6.583333333333334"/> </g><g is="lm-text" transform="matrix(2.0000020748504403 0 0 2.0000024699493624 122.56616542776975 31.6496194596054)">   <path fill="#000000" fill-opacity="1" d="M13.888888888888882,7.75C13.888888888888882,7.75,12.222222222222216,7.75,12.222222222222216,7.75C12.222222222222216,7.75,12.222222222222216,-6.527777777777777,12.222222222222216,-6.527777777777777C12.222222222222216,-6.527777777777777,20.222222222222214,-6.527777777777777,20.222222222222214,-6.527777777777777C20.222222222222214,-6.527777777777777,20.222222222222214,-5.027777777777777,20.222222222222214,-5.027777777777777C20.222222222222214,-5.027777777777777,13.888888888888882,-5.027777777777777,13.888888888888882,-5.027777777777777C13.888888888888882,-5.027777777777777,13.888888888888882,0.19444444444444464,13.888888888888882,0.19444444444444464C13.888888888888882,0.19444444444444464,19.83333333333333,0.19444444444444464,19.83333333333333,0.19444444444444464C19.83333333333333,0.19444444444444464,19.83333333333333,1.6388888888888893,19.83333333333333,1.6388888888888893C19.83333333333333,1.6388888888888893,13.888888888888882,1.6388888888888893,13.888888888888882,1.6388888888888893C13.888888888888882,1.6388888888888893,13.888888888888882,7.75,13.888888888888882,7.75C13.888888888888882,7.75,13.888888888888882,7.75,13.888888888888882,7.75M34.11111111111111,-2.9722222222222214C34.11111111111111,-2.9722222222222214,34.11111111111111,3.9722222222222223,34.11111111111111,3.9722222222222223C34.11111111111111,4.861111111111111,34.33333333333333,5.472222222222222,34.72222222222222,5.916666666666667C35.11111111111111,6.361111111111111,35.77777777777777,6.583333333333334,36.61111111111111,6.583333333333334C37.72222222222222,6.583333333333334,38.55555555555555,6.305555555555555,39.05555555555555,5.694444444444445C39.55555555555555,5.083333333333334,39.83333333333333,4.083333333333334,39.83333333333333,2.6944444444444446C39.83333333333333,2.6944444444444446,39.83333333333333,-2.9722222222222214,39.83333333333333,-2.9722222222222214C39.83333333333333,-2.9722222222222214,41.44444444444444,-2.9722222222222214,41.44444444444444,-2.9722222222222214C41.44444444444444,-2.9722222222222214,41.44444444444444,7.75,41.44444444444444,7.75C41.44444444444444,7.75,40.11111111111111,7.75,40.11111111111111,7.75C40.11111111111111,7.75,39.888888888888886,6.305555555555555,39.888888888888886,6.305555555555555C39.888888888888886,6.305555555555555,39.77777777777777,6.305555555555555,39.77777777777777,6.305555555555555C39.44444444444444,6.805555555555555,39,7.25,38.388888888888886,7.527777777777778C37.77777777777777,7.805555555555555,37.166666666666664,7.972222222222222,36.388888888888886,7.972222222222222C35.11111111111111,7.972222222222222,34.11111111111111,7.638888888888889,33.44444444444444,7.027777777777778C32.77777777777777,6.416666666666667,32.5,5.361111111111111,32.5,4.027777777777779C32.5,4.027777777777779,32.5,-2.9722222222222214,32.5,-2.9722222222222214C32.5,-2.9722222222222214,34.11111111111111,-2.9722222222222214,34.11111111111111,-2.9722222222222214C34.11111111111111,-2.9722222222222214,34.11111111111111,-2.9722222222222214,34.11111111111111,-2.9722222222222214M52.16666666666664,7.75C52.16666666666664,7.75,52.16666666666664,0.8055555555555562,52.16666666666664,0.8055555555555562C52.16666666666664,-0.08333333333333304,51.944444444444414,-0.6944444444444446,51.55555555555553,-1.1388888888888893C51.16666666666664,-1.5833333333333321,50.49999999999997,-1.75,49.66666666666664,-1.75C48.55555555555553,-1.75,47.7222222222222,-1.4722222222222214,47.2222222222222,-0.8611111111111107C46.7222222222222,-0.25,46.44444444444442,0.75,46.44444444444442,2.1388888888888893C46.44444444444442,2.1388888888888893,46.44444444444442,7.75,46.44444444444442,7.75C46.44444444444442,7.75,44.83333333333331,7.75,44.83333333333331,7.75C44.83333333333331,7.75,44.83333333333331,-2.9722222222222214,44.83333333333331,-2.9722222222222214C44.83333333333331,-2.9722222222222214,46.16666666666664,-2.9722222222222214,46.16666666666664,-2.9722222222222214C46.16666666666664,-2.9722222222222214,46.388888888888864,-1.4722222222222214,46.388888888888864,-1.4722222222222214C46.388888888888864,-1.4722222222222214,46.49999999999997,-1.4722222222222214,46.49999999999997,-1.4722222222222214C46.83333333333331,-1.9722222222222214,47.27777777777775,-2.416666666666666,47.888888888888864,-2.6944444444444446C48.49999999999997,-2.9722222222222214,49.16666666666664,-3.1388888888888875,49.888888888888864,-3.1388888888888875C51.16666666666664,-3.1388888888888875,52.111111111111086,-2.8055555555555554,52.77777777777775,-2.1944444444444446C53.444444444444414,-1.5833333333333321,53.77777777777775,-0.6388888888888893,53.77777777777775,0.75C53.77777777777775,0.75,53.77777777777775,7.75,53.77777777777775,7.75C53.77777777777775,7.75,52.16666666666664,7.75,52.16666666666664,7.75C52.16666666666664,7.75,52.16666666666664,7.75,52.16666666666664,7.75M64.33333333333331,6.305555555555555C64.33333333333331,6.305555555555555,64.2222222222222,6.305555555555555,64.2222222222222,6.305555555555555C63.49999999999998,7.416666666666667,62.38888888888887,7.972222222222222,60.88888888888887,7.972222222222222C59.49999999999998,7.972222222222222,58.38888888888887,7.472222222222222,57.61111111111109,6.527777777777778C56.833333333333314,5.583333333333334,56.44444444444443,4.194444444444445,56.44444444444443,2.416666666666667C56.44444444444443,0.6388888888888893,56.833333333333314,-0.6944444444444446,57.61111111111109,-1.6944444444444446C58.38888888888887,-2.6944444444444446,59.49999999999998,-3.1388888888888875,60.88888888888887,-3.1388888888888875C62.333333333333314,-3.1388888888888875,63.44444444444443,-2.6388888888888875,64.2222222222222,-1.5833333333333321C64.2222222222222,-1.5833333333333321,64.33333333333331,-1.5833333333333321,64.33333333333331,-1.5833333333333321C64.33333333333331,-1.5833333333333321,64.27777777777776,-2.3611111111111107,64.27777777777776,-2.3611111111111107C64.27777777777776,-2.3611111111111107,64.2222222222222,-3.083333333333332,64.2222222222222,-3.083333333333332C64.2222222222222,-3.083333333333332,64.2222222222222,-7.472222222222221,64.2222222222222,-7.472222222222221C64.2222222222222,-7.472222222222221,65.88888888888887,-7.472222222222221,65.88888888888887,-7.472222222222221C65.88888888888887,-7.472222222222221,65.88888888888887,7.75,65.88888888888887,7.75C65.88888888888887,7.75,64.55555555555554,7.75,64.55555555555554,7.75C64.55555555555554,7.75,64.33333333333331,6.305555555555555,64.33333333333331,6.305555555555555M61.11111111111109,6.583333333333334C62.2222222222222,6.583333333333334,62.99999999999998,6.305555555555555,63.49999999999998,5.694444444444445C63.99999999999998,5.083333333333334,64.2222222222222,4.083333333333334,64.2222222222222,2.75C64.2222222222222,2.75,64.2222222222222,2.416666666666667,64.2222222222222,2.416666666666667C64.2222222222222,0.916666666666667,63.99999999999998,-0.1388888888888884,63.49999999999998,-0.8055555555555554C62.99999999999998,-1.4722222222222214,62.16666666666665,-1.8055555555555554,61.055555555555536,-1.8055555555555554C60.11111111111109,-1.8055555555555554,59.38888888888887,-1.416666666666666,58.88888888888887,-0.6944444444444446C58.38888888888887,0.027777777777778567,58.11111111111109,1.1388888888888893,58.11111111111109,2.4722222222222223C58.11111111111109,3.861111111111111,58.38888888888887,4.805555555555555,58.88888888888887,5.527777777777778C59.38888888888887,6.25,60.16666666666665,6.583333333333334,61.11111111111109,6.583333333333334C61.11111111111109,6.583333333333334,61.11111111111109,6.583333333333334,61.11111111111109,6.583333333333334"/> </g> </g> </g> </g> </svg>